<?xml version="1.0" encoding="utf-8"?>
<!-- Generator: Adobe Illustrator 25.4.1, SVG Export Plug-In . SVG Version: 6.00 Build 0)  -->
<svg version="1.1" id="Layer_1" xmlns="http://www.w3.org/2000/svg" xmlns:xlink="http://www.w3.org/1999/xlink" x="0px" y="0px"
	 viewBox="0 0 96 32" style="enable-background:new 0 0 96 32;" xml:space="preserve">
<style type="text/css">
	.st0{clip-path:url(#SVGID_00000011733467291204631190000006334942065588924039_);}
	.st1{fill:#2196F3;}
	.st2{fill:#1878C6;}
	.st3{fill:#1565C0;}
	.st4{fill:#10519D;}
	.st5{fill:#FFFFFF;}
</style>
<g>
	<g>
		<defs>
			<polyline id="SVGID_1_" points="96,32 0,32 0,0 96,0 			"/>
		</defs>
		<clipPath id="SVGID_00000054267411864525632810000006369521315232318623_">
			<use xlink:href="#SVGID_1_"  style="overflow:visible;"/>
		</clipPath>
		<g style="clip-path:url(#SVGID_00000054267411864525632810000006369521315232318623_);">
			<path class="st1" d="M16,6.8V0L1,14.6c-0.6,0.6-0.6,1.5,0,2l2.5,2.5"/>
			<path class="st2" d="M16,6.8V0l15,14.6c0.6,0.6,0.6,1.5,0,2l-2.5,2.5"/>
			<path class="st3" d="M3.6,19.2l6-6H16v6"/>
			<path class="st4" d="M28.4,19.2l-6-6H16v6"/>
			<path class="st3" d="M16,26h-6l3-3.2L16,26z"/>
			<path class="st2" d="M16,32l6-6h-6V32z"/>
			<path class="st1" d="M16,32l-6-6h6V32z"/>
			<path class="st4" d="M16,26h6l-3-3.2L16,26z"/>
			<path class="st1" d="M7.7,21.8c-0.5,0.6-0.5,1.4,0,2L10,26l6-6.4v-6.4"/>
			<path class="st2" d="M24.3,21.8c0.5,0.6,0.5,1.4,0,2L22,26l-6-6.4v-6.4"/>
		</g>
	</g>
</g>
<g>
	<path class="st5" d="M44.9,8.6h5.6l2.5,10.7l2.8-10.7h5.4v17.3h-3.6V11.4L54,25.9h-2.8L48,11.4v14.5h-3.1V8.6z"/>
	<path class="st5" d="M75,12.3l-3.1,1.2c-0.4-1.4-1.3-2.1-2.5-2.1c-0.6,0-1,0.2-1.3,0.5c-0.3,0.3-0.5,0.7-0.5,1.1
		c0,0.5,0.2,0.9,0.6,1.2c0.4,0.3,1.2,0.7,2.4,1.1c1.1,0.4,2,0.8,2.6,1.2c0.6,0.4,1.2,1,1.5,1.7c0.4,0.7,0.6,1.5,0.6,2.4
		c0,1.6-0.6,2.9-1.7,4c-1.1,1-2.6,1.6-4.5,1.6c-3.1,0-5.1-1.6-6-4.8l3.3-1c0.4,1.7,1.3,2.6,2.8,2.6c0.7,0,1.2-0.2,1.6-0.5
		c0.4-0.3,0.6-0.8,0.6-1.4c0-0.4-0.1-0.8-0.4-1.1c-0.3-0.3-0.9-0.7-2-1.1c-1.3-0.5-2.3-0.9-3-1.3c-0.7-0.4-1.2-0.9-1.6-1.7
		s-0.6-1.5-0.6-2.4c0-1.6,0.5-2.8,1.5-3.8c1-1,2.3-1.5,4-1.5C72.4,8.3,74.3,9.6,75,12.3z"/>
	<path class="st5" d="M77.7,8.6h3.8v7.2l4.2-7.2h3.9l-4.4,6.4l4.7,11H86l-3-8L81.5,20v5.9h-3.8V8.6z"/>
</g>
</svg>
